<svg width="3448" height="4029" viewBox="0 0 3448 4029" fill="none" xmlns="http://www.w3.org/2000/svg">
<path d="M3274.72 3920.56L3446.21 3377.37L3445.88 3377.26C3454.97 3340.68 3434.12 3302.86 3397.66 3291.36C3359.74 3279.39 3319.31 3300.42 3307.34 3338.32C3306.78 3340.11 3306.29 3341.9 3305.87 3343.69L3137.4 3877.33H3136.68L2965.44 3334.9L2965.21 3334.97C2951.7 3299.69 2912.85 3280.62 2876.34 3292.14C2839.83 3303.66 2818.97 3341.57 2828.16 3378.21L2828.14 3378.22L2828.28 3378.67C2828.61 3379.92 2828.96 3381.17 2829.36 3382.42C2829.75 3383.67 2830.17 3384.89 2830.63 3386.1L3000.01 3922.62L3000.18 3922.57C3002.05 3977.72 3062.79 4022 3137.43 4022C3212.98 4022 3274.28 3976.64 3274.72 3920.56Z" fill="#EA872F"/>
<path d="M2263.89 3144.27C2333.91 3144.27 2390.67 3089.14 2390.67 3021.14C2390.67 2953.13 2333.91 2898 2263.89 2898C2193.88 2898 2137.12 2953.13 2137.12 3021.14C2137.12 3089.14 2193.88 3144.27 2263.89 3144.27Z" fill="#EA872F"/>
<path d="M2008.24 3428.85C2007.9 3428.85 2007.56 3428.85 2007.21 3428.85C1974.8 3428.85 1948.52 3402.25 1948.52 3369.44C1948.52 3336.62 1974.8 3310.02 2007.21 3310.02C2008 3310.02 2008.78 3310.03 2009.56 3310.06V3310.02H2289.72V3310.1C2317.83 3311.6 2340.7 3333.12 2344.67 3360.84H2345.28V3897.16H2550.31C2582.72 3897.16 2609 3923.77 2609 3956.58C2609 3989.4 2582.72 4016 2550.31 4016H1979.04V4015.95C1978.26 4015.98 1977.48 4016 1976.69 4016C1944.28 4016 1918 3989.4 1918 3956.58C1918 3923.77 1944.28 3897.16 1976.69 3897.16C1977.14 3897.16 1977.58 3897.17 1978.03 3897.18C1978.37 3897.19 1978.7 3897.2 1979.04 3897.21V3897.16H2182.51V3428.85H2009.56V3428.81C2009.12 3428.83 2008.68 3428.84 2008.24 3428.85Z" fill="#EA872F"/>
<path d="M1073.21 3004.83C1074 3004.83 1074.78 3004.82 1075.56 3004.79V3004.83H1248.51V3910.17H1045.04V3910.21C1044.26 3910.18 1043.48 3910.17 1042.69 3910.17C1010.28 3910.17 984 3936.77 984 3969.58C984 4002.4 1010.28 4029 1042.69 4029C1043.48 4029 1044.26 4028.98 1045.04 4028.95V4029H1616.31C1648.72 4029 1675 4002.4 1675 3969.58C1675 3936.77 1648.72 3910.17 1616.31 3910.17H1411.28V2942.29H1411.2C1409.64 2911.98 1385.65 2887.68 1355.72 2886.08V2886H1075.56V2886.05C1074.78 2886.02 1074 2886 1073.21 2886C1040.8 2886 1014.52 2912.6 1014.52 2945.42C1014.52 2978.23 1040.8 3004.83 1073.21 3004.83Z" fill="#EA872F"/>
<path fill-rule="evenodd" clip-rule="evenodd" d="M412.5 4029C640.317 4029 825 3819.02 825 3560C825 3300.98 640.317 3091 412.5 3091C184.683 3091 0 3300.98 0 3560C0 3819.02 184.683 4029 412.5 4029ZM414.846 3913.31C545.49 3913.31 651.398 3756.18 651.398 3562.35C651.398 3368.51 545.49 3211.38 414.846 3211.38C284.202 3211.38 178.294 3368.51 178.294 3562.35C178.294 3756.18 284.202 3913.31 414.846 3913.31Z" fill="#EA872F"/>
<path d="M1642 0H1805V319.761C1814.98 312.343 1825.77 304.03 1837.32 295.133L1842.5 291.143C1845.59 288.761 1848.63 286.414 1851.62 284.097L1851.82 283.944C1903.43 244.025 1943.28 213.208 2066 172.143C2170 137.343 2296 144.643 2346 152.643C2341.5 214.643 2315.6 362.543 2248 458.143C2201.62 523.738 2132.18 583.524 2054.33 623.107C2162.34 643.62 2244 738.524 2244 852.5C2244 981.458 2139.46 1086 2010.5 1086C1881.54 1086 1777 981.458 1777 852.5C1777 782.925 1807.43 720.457 1855.71 677.679C1814.25 679.905 1768.71 680.993 1723.5 680.708C1678.29 680.993 1632.75 679.905 1591.29 677.679C1639.57 720.457 1670 782.925 1670 852.5C1670 981.458 1565.46 1086 1436.5 1086C1307.54 1086 1203 981.458 1203 852.5C1203 738.524 1284.66 643.62 1392.67 623.107C1314.82 583.524 1245.38 523.738 1199 458.143C1131.4 362.543 1105.5 214.643 1101 152.643C1151 144.643 1277 137.343 1381 172.143C1503.72 213.208 1543.57 244.025 1595.18 283.944L1595.38 284.097C1598.37 286.414 1601.41 288.761 1604.5 291.143L1609.68 295.133C1621.23 304.03 1632.02 312.343 1642 319.761V0Z" fill="#EA872F"/>
<path d="M1397 1319.5C1397 1448.46 1292.46 1553 1163.5 1553C1034.54 1553 930 1448.46 930 1319.5C930 1190.54 1034.54 1086 1163.5 1086C1292.46 1086 1397 1190.54 1397 1319.5Z" fill="#EA872F"/>
<path d="M1957 1319.5C1957 1448.46 1852.46 1553 1723.5 1553C1594.54 1553 1490 1448.46 1490 1319.5C1490 1190.54 1594.54 1086 1723.5 1086C1852.46 1086 1957 1190.54 1957 1319.5Z" fill="#EA872F"/>
<path d="M2283.5 1553C2412.46 1553 2517 1448.46 2517 1319.5C2517 1190.54 2412.46 1086 2283.5 1086C2154.54 1086 2050 1190.54 2050 1319.5C2050 1448.46 2154.54 1553 2283.5 1553Z" fill="#EA872F"/>
<path d="M1670 1814.5C1670 1943.46 1565.46 2048 1436.5 2048C1307.54 2048 1203 1943.46 1203 1814.5C1203 1685.54 1307.54 1581 1436.5 1581C1565.46 1581 1670 1685.54 1670 1814.5Z" fill="#EA872F"/>
<path d="M2010.5 2048C2139.46 2048 2244 1943.46 2244 1814.5C2244 1685.54 2139.46 1581 2010.5 1581C1881.54 1581 1777 1685.54 1777 1814.5C1777 1943.46 1881.54 2048 2010.5 2048Z" fill="#EA872F"/>
<path d="M1957 2294.5C1957 2423.46 1852.46 2528 1723.5 2528C1594.54 2528 1490 2423.46 1490 2294.5C1490 2165.54 1594.54 2061 1723.5 2061C1852.46 2061 1957 2165.54 1957 2294.5Z" fill="#EA872F"/>
</svg>
