<svg width="6267" height="2528" viewBox="0 0 6267 2528" fill="none" xmlns="http://www.w3.org/2000/svg">
<path d="M6045 1882.29L6264.21 1187.68L6263.78 1187.55C6275.4 1140.76 6248.75 1092.4 6202.14 1077.69C6153.68 1062.4 6101.99 1089.29 6086.69 1137.75C6085.97 1140.04 6085.35 1142.33 6084.81 1144.62L5869.46 1827H5868.54L5649.64 1133.38L5649.36 1133.47C5632.09 1088.36 5582.43 1063.96 5535.75 1078.69C5489.08 1093.42 5462.42 1141.91 5474.17 1188.76L5474.14 1188.77L5474.32 1189.35C5474.73 1190.95 5475.19 1192.55 5475.69 1194.14C5476.2 1195.74 5476.74 1197.31 5477.32 1198.85L5693.84 1884.92L5694.06 1884.85C5696.45 1955.38 5774.08 2012 5869.5 2012C5966.07 2012 6044.43 1954 6045 1882.29Z" fill="#EA872F"/>
<path d="M4752 889C4841.47 889 4914 818.485 4914 731.5C4914 644.515 4841.47 574 4752 574C4662.53 574 4590 644.515 4590 731.5C4590 818.485 4662.53 889 4752 889Z" fill="#EA872F"/>
<path d="M4425.32 1252.99C4424.88 1253 4424.44 1253 4424 1253C4382.58 1253 4349 1218.97 4349 1177C4349 1135.03 4382.58 1101 4424 1101C4425 1101 4426 1101.02 4427 1101.06V1101H4785V1101.11C4820.92 1103.02 4850.15 1130.55 4855.22 1166H4856V1852H5118C5159.42 1852 5193 1886.03 5193 1928C5193 1969.97 5159.42 2004 5118 2004H4388V2003.94C4387 2003.98 4386 2004 4385 2004C4343.58 2004 4310 1969.97 4310 1928C4310 1886.03 4343.58 1852 4385 1852C4385.57 1852 4386.14 1852.01 4386.71 1852.02C4387.14 1852.03 4387.57 1852.04 4388 1852.06V1852H4648V1253H4427V1252.94C4426.44 1252.96 4425.88 1252.98 4425.32 1252.99Z" fill="#EA872F"/>
<path d="M3230 711C3231 711 3232 710.98 3233 710.94V711H3454V1869H3194V1869.06C3193 1869.02 3192 1869 3191 1869C3149.58 1869 3116 1903.03 3116 1945C3116 1986.97 3149.58 2021 3191 2021C3192 2021 3193 2020.98 3194 2020.94V2021H3924C3965.42 2021 3999 1986.97 3999 1945C3999 1903.03 3965.42 1869 3924 1869H3662V631H3661.9C3659.91 592.228 3629.25 561.143 3591 559.106V559H3233V559.06C3232 559.02 3231 559 3230 559C3188.58 559 3155 593.026 3155 635C3155 676.974 3188.58 711 3230 711Z" fill="#EA872F"/>
<path fill-rule="evenodd" clip-rule="evenodd" d="M2384.5 2021C2675.83 2021 2912 1752.37 2912 1421C2912 1089.63 2675.83 821 2384.5 821C2093.17 821 1857 1089.63 1857 1421C1857 1752.37 2093.17 2021 2384.5 2021ZM2387.5 1873C2554.57 1873 2690 1671.98 2690 1424C2690 1176.02 2554.57 975 2387.5 975C2220.43 975 2085 1176.02 2085 1424C2085 1671.98 2220.43 1873 2387.5 1873Z" fill="#EA872F"/>
<path d="M712 0H875V319.761C884.98 312.343 895.771 304.03 907.319 295.133L912.5 291.143C915.594 288.761 918.628 286.414 921.623 284.097L921.822 283.944C973.433 244.025 1013.28 213.208 1136 172.143C1240 137.343 1366 144.643 1416 152.643C1411.5 214.643 1385.6 362.543 1318 458.143C1271.62 523.738 1202.18 583.524 1124.33 623.107C1232.34 643.62 1314 738.524 1314 852.5C1314 981.458 1209.46 1086 1080.5 1086C951.542 1086 847 981.458 847 852.5C847 782.925 877.43 720.457 925.706 677.679C884.253 679.905 838.711 680.993 793.5 680.708C748.289 680.993 702.747 679.905 661.294 677.679C709.57 720.457 740 782.925 740 852.5C740 981.458 635.458 1086 506.5 1086C377.542 1086 273 981.458 273 852.5C273 738.524 354.662 643.62 462.668 623.107C384.818 583.524 315.383 523.738 269 458.143C201.4 362.543 175.5 214.643 171 152.643C221 144.643 347 137.343 451 172.143C573.725 213.208 613.567 244.025 665.178 283.944L665.377 284.097C668.372 286.414 671.406 288.761 674.5 291.143L679.681 295.133C691.229 304.03 702.02 312.343 712 319.761V0Z" fill="#EA872F"/>
<path d="M467 1319.5C467 1448.46 362.458 1553 233.5 1553C104.542 1553 0 1448.46 0 1319.5C0 1190.54 104.542 1086 233.5 1086C362.458 1086 467 1190.54 467 1319.5Z" fill="#EA872F"/>
<path d="M1027 1319.5C1027 1448.46 922.458 1553 793.5 1553C664.542 1553 560 1448.46 560 1319.5C560 1190.54 664.542 1086 793.5 1086C922.458 1086 1027 1190.54 1027 1319.5Z" fill="#EA872F"/>
<path d="M1353.5 1553C1482.46 1553 1587 1448.46 1587 1319.5C1587 1190.54 1482.46 1086 1353.5 1086C1224.54 1086 1120 1190.54 1120 1319.5C1120 1448.46 1224.54 1553 1353.5 1553Z" fill="#EA872F"/>
<path d="M740 1814.5C740 1943.46 635.458 2048 506.5 2048C377.542 2048 273 1943.46 273 1814.5C273 1685.54 377.542 1581 506.5 1581C635.458 1581 740 1685.54 740 1814.5Z" fill="#EA872F"/>
<path d="M1080.5 2048C1209.46 2048 1314 1943.46 1314 1814.5C1314 1685.54 1209.46 1581 1080.5 1581C951.542 1581 847 1685.54 847 1814.5C847 1943.46 951.542 2048 1080.5 2048Z" fill="#EA872F"/>
<path d="M1027 2294.5C1027 2423.46 922.458 2528 793.5 2528C664.542 2528 560 2423.46 560 2294.5C560 2165.54 664.542 2061 793.5 2061C922.458 2061 1027 2165.54 1027 2294.5Z" fill="#EA872F"/>
</svg>
