<svg width="1587" height="2528" viewBox="0 0 1587 2528" fill="none" xmlns="http://www.w3.org/2000/svg">
<path d="M712 0H875V319.761C884.98 312.343 895.771 304.03 907.319 295.133L912.5 291.143C915.594 288.761 918.628 286.414 921.623 284.097L921.822 283.944C973.433 244.025 1013.28 213.208 1136 172.143C1240 137.343 1366 144.643 1416 152.643C1411.5 214.643 1385.6 362.543 1318 458.143C1271.62 523.738 1202.18 583.524 1124.33 623.107C1232.34 643.62 1314 738.524 1314 852.5C1314 981.458 1209.46 1086 1080.5 1086C951.542 1086 847 981.458 847 852.5C847 782.925 877.43 720.457 925.706 677.679C884.253 679.905 838.711 680.993 793.5 680.708C748.289 680.993 702.747 679.905 661.294 677.679C709.57 720.457 740 782.925 740 852.5C740 981.458 635.458 1086 506.5 1086C377.542 1086 273 981.458 273 852.5C273 738.524 354.662 643.62 462.668 623.107C384.818 583.524 315.383 523.738 269 458.143C201.4 362.543 175.5 214.643 171 152.643C221 144.643 347 137.343 451 172.143C573.725 213.208 613.567 244.025 665.178 283.944L665.377 284.097C668.372 286.414 671.406 288.761 674.5 291.143L679.681 295.133C691.229 304.03 702.02 312.343 712 319.761V0Z" fill="#EA872F"/>
<path d="M467 1319.5C467 1448.46 362.458 1553 233.5 1553C104.542 1553 0 1448.46 0 1319.5C0 1190.54 104.542 1086 233.5 1086C362.458 1086 467 1190.54 467 1319.5Z" fill="#EA872F"/>
<path d="M1027 1319.5C1027 1448.46 922.458 1553 793.5 1553C664.542 1553 560 1448.46 560 1319.5C560 1190.54 664.542 1086 793.5 1086C922.458 1086 1027 1190.54 1027 1319.5Z" fill="#EA872F"/>
<path d="M1353.5 1553C1482.46 1553 1587 1448.46 1587 1319.5C1587 1190.54 1482.46 1086 1353.5 1086C1224.54 1086 1120 1190.54 1120 1319.5C1120 1448.46 1224.54 1553 1353.5 1553Z" fill="#EA872F"/>
<path d="M740 1814.5C740 1943.46 635.458 2048 506.5 2048C377.542 2048 273 1943.46 273 1814.5C273 1685.54 377.542 1581 506.5 1581C635.458 1581 740 1685.54 740 1814.5Z" fill="#EA872F"/>
<path d="M1080.5 2048C1209.46 2048 1314 1943.46 1314 1814.5C1314 1685.54 1209.46 1581 1080.5 1581C951.542 1581 847 1685.54 847 1814.5C847 1943.46 951.542 2048 1080.5 2048Z" fill="#EA872F"/>
<path d="M1027 2294.5C1027 2423.46 922.458 2528 793.5 2528C664.542 2528 560 2423.46 560 2294.5C560 2165.54 664.542 2061 793.5 2061C922.458 2061 1027 2165.54 1027 2294.5Z" fill="#EA872F"/>
</svg>
